 <svg version="1.0" xmlns="http://www.w3.org/2000/svg" width="700.000000pt" height="615.000000pt" viewBox="0 0 700.000000 615.000000" preserveAspectRatio="xMidYMid meet">
<metadata>
Created by potrace 1.12, written by Peter Selinger 2001-2015
</metadata>
<g transform="translate(0.000000,615.000000) scale(0.100000,-0.100000)" fill="#000000" stroke="none">
<path d="M0 3075 l0 -3075 3500 0 3500 0 0 3075 0 3075 -3500 0 -3500 0 0
-3075z m3856 2531 c54 -13 119 -28 144 -34 156 -37 326 -84 381 -108 293 -123
600 -323 728 -473 26 -31 88 -96 138 -146 49 -49 144 -163 211 -253 108 -144
135 -188 236 -391 82 -164 128 -272 164 -382 98 -298 101 -312 103 -487 1
-152 1 -159 -27 -227 -23 -54 -34 -71 -52 -73 -39 -6 -69 95 -87 288 -3 36
-12 101 -20 145 -7 44 -16 99 -19 121 -14 99 -140 413 -204 508 -16 22 -42 71
-59 107 -49 106 -141 256 -224 365 -132 174 -246 309 -286 339 -21 16 -66 53
-99 81 -121 102 -320 225 -442 275 -152 61 -308 117 -392 140 -84 24 -89 24
-595 24 -494 0 -513 -1 -605 -23 -52 -12 -127 -29 -167 -37 -40 -8 -99 -24
-132 -35 -33 -11 -65 -20 -71 -20 -5 0 -78 -27 -162 -59 -84 -33 -187 -69
-228 -81 -132 -39 -233 -113 -464 -339 -135 -133 -242 -260 -319 -380 -35 -55
-87 -160 -87 -177 0 -7 -7 -20 -16 -28 -8 -9 -38 -64 -65 -123 -28 -60 -77
-162 -109 -228 -69 -142 -84 -192 -104 -342 -8 -62 -17 -117 -21 -123 -3 -5
-5 -173 -4 -372 1 -200 1 -382 0 -406 -1 -23 5 -57 13 -75 8 -17 22 -68 32
-112 9 -44 24 -88 33 -98 8 -10 18 -41 22 -70 21 -146 48 -223 158 -447 215
-441 550 -764 1056 -1018 209 -105 421 -171 640 -198 28 -3 75 -13 105 -21 41
-12 125 -17 330 -20 264 -5 340 -1 470 27 25 5 87 16 138 25 129 23 372 104
520 175 215 103 421 275 685 570 233 261 368 470 501 773 35 80 61 181 86 332
12 72 23 132 25 135 2 3 11 86 20 185 9 99 20 184 25 189 4 4 14 -2 21 -15 34
-65 16 -580 -28 -759 -87 -360 -399 -881 -693 -1156 -258 -241 -510 -402 -846
-543 -116 -49 -156 -61 -320 -96 -102 -21 -889 -22 -979 0 -33 8 -79 14 -102
15 -95 0 -297 57 -508 143 -63 25 -263 128 -340 174 -140 84 -314 223 -468
372 -227 221 -270 283 -466 671 -173 342 -301 725 -301 899 0 26 -7 73 -15
106 -14 51 -14 94 -5 320 5 143 14 276 19 295 5 19 18 71 30 115 12 44 31 116
43 160 27 103 156 423 218 542 96 184 286 450 419 586 83 87 205 183 297 234
39 22 100 63 135 90 196 154 554 311 889 391 119 28 149 35 300 66 45 9 161
14 381 15 301 1 321 0 415 -23z m-846 -1402 c22 -15 40 -32 40 -40 0 -44 -36
-58 -78 -28 -14 9 -38 14 -64 12 l-42 -3 -44 -90 c-25 -49 -62 -132 -83 -184
-21 -51 -44 -100 -50 -108 -18 -21 -5 -26 38 -14 88 25 215 -3 290 -63 l43
-34 46 17 c25 9 81 46 125 84 46 38 90 67 102 67 12 0 58 -14 102 -30 50 -19
99 -30 130 -30 28 0 65 -4 84 -10 19 -5 37 -7 42 -4 4 2 -5 31 -22 64 -16 32
-29 65 -30 72 0 7 -28 69 -62 138 l-62 125 -43 3 c-26 2 -50 -3 -64 -12 -35
-25 -67 -20 -74 11 -8 30 5 43 71 74 52 24 79 24 132 -2 40 -20 48 -30 97
-133 51 -107 70 -148 112 -246 10 -25 35 -79 55 -119 l36 -75 214 -76 c254
-89 254 -89 166 -179 -73 -74 -90 -111 -91 -191 l-1 -65 35 -5 c28 -4 36 -10
38 -29 3 -20 -55 -83 -350 -378 -194 -195 -361 -358 -370 -364 -19 -10 -39 -3
-443 168 -143 61 -322 136 -397 167 -200 84 -248 132 -248 246 0 83 24 127
107 193 38 30 85 70 106 88 l38 34 -48 36 c-34 25 -57 53 -77 94 -43 88 -36
137 45 300 36 72 76 157 89 190 13 33 43 100 67 148 24 48 43 91 43 96 0 20
64 94 93 107 44 20 108 11 157 -22z m1868 -2033 c12 -6 26 -20 32 -31 8 -16 6
-22 -15 -36 -23 -15 -27 -15 -51 0 -35 24 -69 17 -69 -13 0 -19 9 -27 51 -42
106 -40 140 -120 78 -183 -51 -50 -143 -50 -195 0 -36 34 -37 51 -4 66 20 9
28 8 42 -5 27 -24 65 -30 87 -14 29 21 13 45 -49 72 -74 33 -95 56 -95 104 0
89 97 131 188 82z m-2943 -21 l0 -35 -65 -5 c-62 -5 -65 -6 -68 -32 -3 -27 -2
-28 45 -28 51 0 73 -12 73 -41 0 -25 -17 -33 -70 -34 -50 0 -45 10 -49 -97 -1
-37 -2 -38 -40 -38 l-39 0 -7 104 c-7 93 0 218 12 239 3 4 50 6 106 5 l102 -3
0 -35z m226 30 c55 -15 82 -51 83 -109 1 -41 -4 -55 -27 -79 l-28 -29 40 -59
40 -59 -32 -5 c-44 -8 -47 -6 -87 53 -42 61 -77 72 -72 22 1 -16 0 -40 -3 -53
-5 -20 -11 -23 -43 -20 l-37 3 -3 159 c-2 108 1 163 9 172 14 17 106 19 160 4z
m374 -30 l0 -35 -65 -5 c-61 -5 -65 -6 -65 -30 0 -23 4 -25 47 -28 42 -3 49
-6 54 -28 9 -34 -7 -47 -58 -48 -41 -1 -43 -2 -43 -31 l0 -30 66 -3 c61 -3 67
-5 71 -27 3 -13 2 -28 -2 -34 -7 -12 -205 -19 -216 -8 -10 10 -10 319 0 335 5
9 36 12 109 10 l102 -3 0 -35z m255 18 c44 -30 47 -43 16 -64 -24 -15 -28 -15
-52 0 -34 23 -68 17 -72 -11 -3 -17 3 -25 25 -33 96 -35 133 -70 133 -126 0
-105 -153 -145 -227 -59 -29 33 -29 43 2 57 20 9 28 8 42 -4 27 -23 67 -29 88
-14 29 21 11 44 -59 76 -35 15 -69 38 -75 49 -26 49 -4 122 43 141 41 17 102
11 136 -12z m180 -48 l5 -65 65 0 65 0 2 54 c2 69 7 81 36 81 44 0 48 -17 45
-186 l-3 -159 -37 -3 -37 -3 -3 63 -3 63 -65 0 -65 0 -3 -62 -3 -63 -39 0 -40
0 0 159 c0 88 3 167 6 176 5 11 16 15 38 13 31 -3 31 -4 36 -68z m525 60 c35
-13 42 -37 18 -61 -16 -17 -24 -18 -48 -9 -38 14 -73 5 -107 -28 -41 -38 -40
-102 3 -144 29 -29 33 -30 88 -25 50 5 61 4 76 -13 21 -23 13 -38 -31 -56 -99
-41 -214 13 -245 116 -25 82 20 183 95 216 37 16 114 18 151 4z m376 -145 c91
-204 89 -195 41 -195 -32 0 -41 5 -50 25 -11 24 -16 25 -97 25 -82 0 -86 -1
-95 -25 -5 -14 -15 -25 -22 -25 -7 0 -23 -3 -35 -6 -37 -10 -36 17 3 102 20
43 52 115 71 159 19 44 40 83 46 87 7 5 25 7 42 6 28 -3 33 -11 96 -153z m336
129 c56 -42 62 -127 12 -180 l-20 -21 36 -54 c19 -29 35 -57 35 -60 0 -10 -58
-17 -70 -9 -6 4 -25 29 -43 56 -21 31 -39 49 -52 49 -20 0 -21 -3 -24 -82 -1
-20 -6 -23 -41 -23 l-40 0 0 168 c0 93 3 172 8 176 4 5 44 6 90 4 62 -3 89 -9
109 -24z m340 1 c66 -43 99 -111 87 -176 -21 -111 -106 -166 -236 -153 l-68 7
0 167 c0 91 3 170 8 174 14 15 180 0 209 -19z"></path>
<path d="M3301 3706 l-24 -25 27 -12 c23 -11 30 -10 54 8 36 27 35 47 -3 51
-22 2 -37 -4 -54 -22z"></path>
<path d="M2674 3641 c-110 -64 -135 -187 -56 -267 113 -113 338 -91 402 40 39
82 13 164 -70 221 -41 27 -54 30 -135 33 -85 3 -93 1 -141 -27z"></path>
<path d="M3465 3651 c-48 -22 -99 -76 -115 -124 -23 -71 22 -156 104 -200 33
-17 58 -22 126 -22 75 0 90 3 133 28 51 30 91 83 102 133 12 61 -47 152 -120
185 -55 25 -175 25 -230 0z"></path>
<path d="M3158 3584 c-37 -26 -38 -29 -38 -88 -1 -106 -55 -190 -157 -242 -49
-24 -72 -30 -148 -33 l-90 -3 -60 -50 c-33 -28 -60 -55 -60 -60 0 -5 104 -54
230 -109 127 -55 298 -130 380 -166 83 -36 167 -73 188 -83 l38 -19 355 352
c195 193 353 355 351 360 -2 7 -195 79 -241 90 -5 1 -9 -21 -11 -49 -8 -192
-238 -319 -441 -243 -60 23 -136 84 -159 130 -25 48 -34 110 -24 163 5 27 6
53 2 57 -5 4 -24 10 -43 14 -28 5 -42 1 -72 -21z"></path>
<path d="M3759 2933 c-147 -148 -274 -283 -283 -302 -23 -49 -31 -132 -14
-154 12 -16 41 11 312 282 l298 299 -16 48 c-9 26 -16 58 -16 71 0 13 -3 23
-8 23 -4 0 -127 -120 -273 -267z"></path>
<path d="M2484 3008 c-19 -37 -15 -117 7 -144 8 -10 50 -34 94 -55 89 -42 762
-329 778 -332 7 -1 10 15 8 41 -1 23 5 65 14 93 9 28 15 52 14 53 -20 15 -866
376 -882 376 -9 0 -24 -14 -33 -32z"></path>
<path d="M2074 2096 c-3 -8 -4 -27 -2 -43 2 -23 8 -29 34 -31 37 -4 57 16 52
55 -3 24 -8 28 -41 31 -26 2 -39 -1 -43 -12z"></path>
<path d="M3740 2028 c-28 -62 -26 -68 23 -68 53 0 61 7 44 34 -8 12 -17 33
-21 49 -9 38 -24 34 -46 -15z"></path>
<path d="M4087 2103 c-14 -13 -7 -74 8 -79 24 -10 64 5 76 27 8 16 7 25 -7 40
-17 18 -64 26 -77 12z"></path>
<path d="M4409 2105 c0 -3 -1 -47 -1 -97 l0 -93 47 1 c39 0 52 5 71 28 57 65
11 166 -75 166 -23 0 -41 -2 -42 -5z"></path>
</g>
</svg>
